<svg xmlns="http://www.w3.org/2000/svg" xmlns:xlink="http://www.w3.org/1999/xlink" version="1.1" xml:space="preserve" width="560" height="103"><rect id="backgroundrect" width="100%" height="100%" x="0" y="0" fill="none" stroke="none" class=""/>
<style type="text/css">
	.st0{fill:#E73657;}
	.st1{fill:#FFFFFF;}
	.st2{fill:#F2CA22;}
	.st3{fill:#8CC740;}
	.st4{fill:#10A3D9;}
</style>

<g class="currentLayer"><title>Layer 1</title><g id="XMLID_5_" class="">
	<g id="XMLID_72_">
		<rect id="XMLID_73_" x="0" y="0.13394248485565186" class="st0" width="103.1955337524414" height="103.0999984741211"/>
	</g>
	<g id="XMLID_68_">
		<path id="XMLID_69_" class="st1" d="M48.24466316735329,79.43394858837127 H36.93419243132652 v-50.6 H48.64503381287636 c5.705281698703766,0 10.409636783599854,1.4 14.012972593307495,4.2 c3.8035211324691787,2.9 5.805374360084533,6.8 5.805374360084533,11.5 s-2.0018532276153564,8.7 -6.005559682846069,11.8 c-3.303057825565338,2.6 -8.107505571842193,4.1 -14.21315791606903,4.4 C48.24466316735329,60.733948588371284 48.24466316735329,79.43394858837127 48.24466316735329,79.43394858837127 zM48.24466316735329,39.53394858837129 v10.5 c3.503243148326874,-0.3000000000000003 5.405003714561463,-0.9 6.5060229897499084,-1.5 c1.4012972593307493,-0.8 2.0018532276153564,-2 2.0018532276153564,-3.8 c0,-1.4 -0.5004633069038323,-2.5 -1.7015752434730533,-3.6 C54.65059349572243,40.733948588371284 53.04911091363015,39.83394858837131 48.24466316735329,39.53394858837129 z"/>
	</g>
	<g id="XMLID_66_">
		<rect id="XMLID_67_" x="114.10562896728516" y="0.13394248485565186" class="st2" width="103.1955337524414" height="103.0999984741211"/>
	</g>
	<g id="XMLID_63_">
		<path id="XMLID_64_" class="st1" d="M171.05835868155543,79.43394858837127 H159.74788794552865 v-50.6 h11.310470736026765 V79.43394858837127 z"/>
	</g>
	<g id="XMLID_61_">
		<rect id="XMLID_62_" x="228.3113555908203" y="0.13394248485565186" class="st3" width="103.1955337524414" height="103.0999984741211"/>
	</g>
	<g id="XMLID_57_">
		<path id="XMLID_58_" class="st1" d="M276.5560237768847,79.43394858837127 h-11.310470736026765 v-50.6 h11.710841381549834 c5.705281698703766,0 10.409636783599854,1.4 14.012972593307495,4.2 c3.8035211324691787,2.9 5.805374360084533,6.8 5.805374360084533,11.5 s-2.0018532276153564,8.7 -6.005559682846069,11.8 c-3.303057825565338,2.6 -8.107505571842193,4.1 -14.21315791606903,4.4 V79.43394858837127 zM276.5560237768847,39.53394858837129 v10.5 c3.503243148326874,-0.3000000000000003 5.405003714561463,-0.9 6.5060229897499084,-1.5 c1.4012972593307493,-0.8 2.0018532276153564,-2 2.0018532276153564,-3.8 c0,-1.4 -0.5004633069038323,-2.5 -1.7015752434730533,-3.6 C282.86186144387307,40.733948588371284 281.36047152316155,39.83394858837131 276.5560237768847,39.53394858837129 z"/>
	</g>
	<g id="XMLID_55_">
		<rect id="XMLID_56_" x="342.4169921875" y="0.13394248485565186" class="st4" width="103.1955337524414" height="103.0999984741211"/>
	</g>
	<g id="XMLID_52_">
		<path id="XMLID_53_" class="st1" d="M410.079634058829,79.43394858837127 h-30.32807639837265 v-50.6 h30.32807639837265 V40.233948588371284 h-19.017605662345886 v6.1 h19.017605662345886 v11.3 h-19.017605662345886 v10.4 h19.017605662345886 V79.43394858837127 z"/>
	</g>
	<g id="XMLID_50_">
		<rect id="XMLID_51_" x="456.52264404296875" y="0.13394248485565186" class="st0" width="103.1955337524414" height="103.0999984741211"/>
	</g>
	<g id="XMLID_46_">
		<path id="XMLID_47_" class="st1" d="M527.788603842612,79.43394858837127 h-13.412416625022889 l-10.009266138076782,-14.8 v14.8 h-11.410563397407532 v-50.6 h12.41149001121521 c5.50509637594223,0 10.009266138076782,1.4 13.612601947784423,4.2 c3.7034284710884102,2.9 5.605189037322997,6.8 5.605189037322997,11.4 c0,3.7 -1.2011119365692138,6.9 -3.603335809707642,9.7 c-1.7015752434730533,2 -4.10379911661148,3.6 -7.106578958034515,4.7 L527.788603842612,79.43394858837127 zM504.467013740893,39.63394858837126 v10.5 c8.507876217365265,-0.4 8.507876217365265,-3.9 8.507876217365265,-5.3 c0,-1.3 -0.30027798414230716,-2.3 -1.0009266138076782,-3 c-0.7006486296653889,-0.8 -1.7015752434730533,-1.4 -2.9026871800422667,-1.7000000000000002 C507.97025688921985,39.933948588371265 506.3687743071276,39.733948588371284 504.467013740893,39.63394858837126 z"/>
	</g>
</g><image id="svg_2" x="525.5999755859375" y="0" width="2" height="0" style="color: rgb(0, 0, 0);" class="" xlink:href="logo/vector_paint_icon256.png"/></g></svg>